<svg width="220" height="36" viewBox="0 0 220 36" fill="none" xmlns="http://www.w3.org/2000/svg">
<rect width="35.6757" height="35.6757" rx="11.8919" fill="#F15024"/>
<path d="M18.8105 22.8838H22.4785L26.2861 28.3105H12.2812L2.45117 14.2998H12.7871L18.8105 22.8838ZM27.3506 13.0039H23.6826L25.7471 15.9463H29.416L33.2236 21.373H19.2188L13.3467 13.0039H13.3457L9.3877 7.36328H23.7578L27.3506 13.0039Z" fill="black"/>
<path d="M215.978 15.8951L215.598 15.9427V8.87891H218.642V26.0032H215.883L215.693 24.5286C215.312 24.9726 214.805 25.3611 214.171 25.694C213.552 26.0112 212.831 26.1697 212.006 26.1697C210.976 26.1697 210.064 25.916 209.271 25.4086C208.478 24.9012 207.86 24.1957 207.416 23.2919C206.972 22.3722 206.75 21.294 206.75 20.0573C206.75 18.8205 206.972 17.7423 207.416 16.8227C207.86 15.9031 208.478 15.1975 209.271 14.7059C210.064 14.1985 210.976 13.9449 212.006 13.9449C212.942 13.9449 213.742 14.1351 214.408 14.5157C215.09 14.8962 215.613 15.356 215.978 15.8951ZM210.032 20.0573C210.032 21.0562 210.286 21.8649 210.793 22.4832C211.301 23.0858 211.967 23.387 212.791 23.387C213.298 23.387 213.758 23.2602 214.171 23.0065C214.599 22.7369 214.94 22.3564 215.193 21.8649C215.463 21.3733 215.598 20.7708 215.598 20.0573C215.598 19.3438 215.463 18.7412 215.193 18.2497C214.94 17.7582 214.599 17.3856 214.171 17.1319C213.758 16.8623 213.298 16.7276 212.791 16.7276C211.967 16.7276 211.301 17.0367 210.793 17.6551C210.286 18.2576 210.032 19.0584 210.032 20.0573Z" fill="#001D21"/>
<path d="M198.445 26.1682C197.256 26.1682 196.209 25.9066 195.305 25.3834C194.401 24.8601 193.696 24.1307 193.188 23.1953C192.697 22.2598 192.451 21.1816 192.451 19.9607C192.451 18.7873 192.697 17.7488 193.188 16.845C193.68 15.9412 194.362 15.2356 195.234 14.7282C196.122 14.205 197.129 13.9434 198.254 13.9434C199.396 13.9434 200.403 14.1891 201.275 14.6807C202.147 15.1722 202.821 15.8619 203.297 16.7498C203.788 17.6219 204.034 18.6446 204.034 19.818C204.034 19.9924 204.018 20.1906 203.986 20.4125C203.97 20.6187 203.947 20.8407 203.915 21.0785H195.733C195.797 21.5859 195.955 22.0219 196.209 22.3866C196.479 22.7354 196.804 23.0129 197.184 23.219C197.581 23.4093 198.024 23.5044 198.516 23.5044C199.103 23.5044 199.626 23.3855 200.086 23.1477C200.561 22.894 200.902 22.5689 201.108 22.1726L203.82 22.9812C203.344 23.996 202.631 24.7808 201.679 25.3358C200.744 25.8907 199.666 26.1682 198.445 26.1682ZM200.704 18.8666C200.688 18.4226 200.569 18.0262 200.347 17.6774C200.125 17.3127 199.832 17.0353 199.467 16.845C199.103 16.6389 198.698 16.5358 198.254 16.5358C197.858 16.5358 197.485 16.6389 197.137 16.845C196.788 17.0511 196.486 17.3286 196.233 17.6774C195.995 18.0104 195.836 18.4068 195.757 18.8666H200.704Z" fill="#001D21"/>
<path d="M184.144 26.1682C182.955 26.1682 181.908 25.9066 181.004 25.3834C180.101 24.8601 179.395 24.1307 178.888 23.1953C178.396 22.2598 178.15 21.1816 178.15 19.9607C178.15 18.7873 178.396 17.7488 178.888 16.845C179.379 15.9412 180.061 15.2356 180.933 14.7282C181.821 14.205 182.828 13.9434 183.954 13.9434C185.095 13.9434 186.102 14.1891 186.974 14.6807C187.846 15.1722 188.52 15.8619 188.996 16.7498C189.487 17.6219 189.733 18.6446 189.733 19.818C189.733 19.9924 189.717 20.1906 189.686 20.4125C189.67 20.6187 189.646 20.8407 189.614 21.0785H181.433C181.496 21.5859 181.655 22.0219 181.908 22.3866C182.178 22.7354 182.503 23.0129 182.883 23.219C183.28 23.4093 183.724 23.5044 184.215 23.5044C184.802 23.5044 185.325 23.3855 185.785 23.1477C186.261 22.894 186.602 22.5689 186.808 22.1726L189.519 22.9812C189.043 23.996 188.33 24.7808 187.378 25.3358C186.443 25.8907 185.365 26.1682 184.144 26.1682ZM186.403 18.8666C186.388 18.4226 186.269 18.0262 186.047 17.6774C185.825 17.3127 185.531 17.0353 185.167 16.845C184.802 16.6389 184.398 16.5358 183.954 16.5358C183.557 16.5358 183.185 16.6389 182.836 16.845C182.487 17.0511 182.186 17.3286 181.932 17.6774C181.694 18.0104 181.536 18.4068 181.456 18.8666H186.403Z" fill="#001D21"/>
<path d="M168.719 14.1132H171.478L171.692 15.6354C172.025 15.2231 172.397 14.8901 172.81 14.6364C173.238 14.3669 173.705 14.1845 174.213 14.0894C174.72 13.9784 175.251 13.9863 175.806 14.1132V16.9673C175.378 16.8245 174.926 16.7849 174.451 16.8483C173.991 16.9118 173.555 17.0782 173.143 17.3478C172.746 17.6173 172.413 18.0058 172.144 18.5132C171.89 19.0047 171.763 19.631 171.763 20.3921V26.0051H168.719V14.1132Z" fill="#001D21"/>
<path d="M149.061 17.6803C149.061 16.4277 149.275 15.286 149.703 14.2554C150.131 13.2089 150.725 12.3131 151.486 11.5678C152.248 10.8067 153.136 10.2201 154.15 9.80783C155.181 9.39558 156.291 9.18945 157.48 9.18945C159.192 9.18945 160.707 9.60171 162.023 10.4262C163.355 11.2349 164.354 12.4003 165.019 13.9224L162.332 14.7073C161.983 14.0413 161.547 13.5022 161.024 13.09C160.516 12.6777 159.961 12.3765 159.359 12.1862C158.756 11.9959 158.146 11.9008 157.528 11.9008C156.513 11.9008 155.609 12.1466 154.816 12.6381C154.023 13.1138 153.405 13.7877 152.961 14.6597C152.533 15.5318 152.319 16.5386 152.319 17.6803C152.319 18.8219 152.533 19.8287 152.961 20.7008C153.405 21.557 154.023 22.2309 154.816 22.7224C155.609 23.214 156.513 23.4597 157.528 23.4597C158.162 23.4597 158.788 23.3646 159.406 23.1743C160.041 22.9682 160.627 22.6273 161.166 22.1516C161.706 21.6759 162.165 21.0417 162.546 20.2489L165.186 20.9862C164.504 22.7145 163.489 24.0147 162.142 24.8867C160.794 25.743 159.24 26.1711 157.48 26.1711C156.291 26.1711 155.181 25.9649 154.15 25.5527C153.136 25.1404 152.248 24.5538 151.486 23.7927C150.725 23.0316 150.131 22.1358 149.703 21.1051C149.275 20.0586 149.061 18.917 149.061 17.6803Z" fill="#001D21"/>
<path d="M143.061 14.1098H145.82V24.2417C145.82 25.5895 145.487 26.747 144.821 27.7142C144.155 28.6972 143.188 29.4504 141.919 29.9736C140.666 30.4969 139.16 30.7585 137.4 30.7585L136.924 28.1898C138.843 28.1581 140.294 27.8172 141.277 27.1671C142.276 26.5171 142.775 25.5816 142.775 24.3607V24.3131L143.18 24.1704C142.799 24.7253 142.276 25.201 141.61 25.5974C140.944 25.978 140.151 26.1682 139.232 26.1682C138.185 26.1682 137.265 25.9145 136.473 25.4071C135.68 24.8998 135.053 24.1942 134.594 23.2904C134.15 22.3707 133.928 21.2925 133.928 20.0558C133.928 18.819 134.15 17.7408 134.594 16.8212C135.053 15.9016 135.68 15.196 136.473 14.7044C137.265 14.1971 138.185 13.9434 139.232 13.9434C139.771 13.9434 140.27 14.0226 140.73 14.1812C141.206 14.3239 141.618 14.5221 141.967 14.7758C142.331 15.0136 142.633 15.2832 142.87 15.5844L143.061 14.1098ZM137.21 20.0558C137.21 21.0547 137.464 21.8634 137.971 22.4817C138.478 23.0843 139.16 23.3855 140.016 23.3855C140.508 23.3855 140.96 23.2587 141.372 23.005C141.784 22.7354 142.117 22.347 142.371 21.8396C142.641 21.3322 142.775 20.7376 142.775 20.0558C142.775 19.3423 142.641 18.7398 142.371 18.2482C142.117 17.7567 141.776 17.3841 141.348 17.1304C140.936 16.8608 140.492 16.7261 140.016 16.7261C139.16 16.7261 138.478 17.0353 137.971 17.6536C137.464 18.2562 137.21 19.0569 137.21 20.0558Z" fill="#001D21"/>
<path d="M120.199 14.1098H122.958L123.172 15.3228C123.553 14.8947 124.013 14.5617 124.552 14.3239C125.107 14.0702 125.701 13.9434 126.335 13.9434C127.271 13.9434 128.064 14.1416 128.714 14.538C129.38 14.9344 129.887 15.5131 130.236 16.2742C130.601 17.0194 130.783 17.947 130.783 19.0569V26.0017H127.715V19.4612C127.715 18.5416 127.533 17.8518 127.168 17.392C126.803 16.9322 126.256 16.7023 125.527 16.7023C124.782 16.7023 124.211 16.9401 123.814 17.4158C123.434 17.8756 123.244 18.5653 123.244 19.485V26.0017H120.199V14.1098Z" fill="#001D21"/>
<path d="M112.83 14.1113H115.874V26.0032H112.83V14.1113ZM114.376 12.5892C113.805 12.5892 113.337 12.4148 112.973 12.0659C112.608 11.7012 112.426 11.2573 112.426 10.734C112.426 10.2108 112.608 9.77476 112.973 9.42593C113.337 9.06125 113.805 8.87891 114.376 8.87891C114.915 8.87891 115.367 9.06125 115.732 9.42593C116.112 9.77476 116.303 10.2108 116.303 10.734C116.303 11.2573 116.112 11.7012 115.732 12.0659C115.367 12.4148 114.915 12.5892 114.376 12.5892Z" fill="#001D21"/>
<path d="M98.1016 14.1098H100.86L101.075 15.3228C101.455 14.8947 101.915 14.5617 102.454 14.3239C103.009 14.0702 103.604 13.9434 104.238 13.9434C105.173 13.9434 105.966 14.1416 106.616 14.538C107.282 14.9344 107.789 15.5131 108.138 16.2742C108.503 17.0194 108.685 17.947 108.685 19.0569V26.0017H105.617V19.4612C105.617 18.5416 105.435 17.8518 105.07 17.392C104.706 16.9322 104.158 16.7023 103.429 16.7023C102.684 16.7023 102.113 16.9401 101.717 17.4158C101.336 17.8756 101.146 18.5653 101.146 19.485V26.0017H98.1016V14.1098Z" fill="#001D21"/>
<path d="M88.0781 14.1132H90.837L91.0511 15.6354C91.3841 15.2231 91.7567 14.8901 92.1689 14.6364C92.597 14.3669 93.0648 14.1845 93.5722 14.0894C94.0796 13.9784 94.6107 13.9863 95.1657 14.1132V16.9673C94.7376 16.8245 94.2857 16.7849 93.81 16.8483C93.3502 16.9118 92.9142 17.0782 92.5019 17.3478C92.1055 17.6173 91.7725 18.0058 91.503 18.5132C91.2493 19.0047 91.1225 19.631 91.1225 20.3921V26.0051H88.0781V14.1132Z" fill="#001D21"/>
<path d="M81.489 26.0017L81.2512 24.5509C80.8548 25.0425 80.4029 25.4309 79.8955 25.7163C79.404 26.0017 78.738 26.1444 77.8977 26.1444C77.1049 26.1444 76.4072 26.0097 75.8047 25.7401C75.218 25.4547 74.7582 25.0662 74.4252 24.5747C74.0923 24.0673 73.9258 23.4727 73.9258 22.7909C73.9258 21.792 74.2825 20.9675 74.9961 20.3174C75.7254 19.6515 76.8195 19.2313 78.2782 19.0569L81.2512 18.7239V17.8915C81.2512 17.5585 81.1006 17.2493 80.7993 16.9639C80.498 16.6785 80.0224 16.5358 79.3723 16.5358C78.8015 16.5358 78.302 16.6785 77.8739 16.9639C77.4616 17.2334 77.1842 17.6457 77.0415 18.2007L74.4252 17.2493C74.7424 16.187 75.3449 15.3704 76.2328 14.7996C77.1207 14.2288 78.2148 13.9434 79.515 13.9434C81.1006 13.9434 82.2897 14.3398 83.0825 15.1325C83.8912 15.9095 84.2955 16.9401 84.2955 18.2244V26.0017H81.489ZM81.2512 20.8407L78.6825 21.1736C78.1593 21.2371 77.7629 21.3956 77.4933 21.6493C77.2238 21.8871 77.089 22.1805 77.089 22.5293C77.089 22.8623 77.2238 23.1477 77.4933 23.3855C77.7629 23.6075 78.1434 23.7185 78.635 23.7185C79.1899 23.7185 79.6577 23.6154 80.0382 23.4093C80.4346 23.2032 80.7359 22.9019 80.942 22.5055C81.1481 22.1091 81.2512 21.6176 81.2512 21.0309V20.8407Z" fill="#001D21"/>
<path d="M65.597 26.1682C64.4078 26.1682 63.3614 25.9066 62.4576 25.3834C61.5538 24.8601 60.8482 24.1307 60.3408 23.1953C59.8493 22.2598 59.6035 21.1816 59.6035 19.9607C59.6035 18.7873 59.8493 17.7488 60.3408 16.845C60.8323 15.9412 61.5141 15.2356 62.3862 14.7282C63.2741 14.205 64.281 13.9434 65.4068 13.9434C66.5484 13.9434 67.5552 14.1891 68.4273 14.6807C69.2994 15.1722 69.9732 15.8619 70.4489 16.7498C70.9405 17.6219 71.1862 18.6446 71.1862 19.818C71.1862 19.9924 71.1704 20.1906 71.1386 20.4125C71.1228 20.6187 71.099 20.8407 71.0673 21.0785H62.8857C62.9491 21.5859 63.1077 22.0219 63.3614 22.3866C63.6309 22.7354 63.9559 23.0129 64.3365 23.219C64.7329 23.4093 65.1768 23.5044 65.6684 23.5044C66.255 23.5044 66.7783 23.3855 67.2381 23.1477C67.7138 22.894 68.0547 22.5689 68.2608 22.1726L70.9722 22.9812C70.4965 23.996 69.783 24.7808 68.8316 25.3358C67.8961 25.8907 66.8179 26.1682 65.597 26.1682ZM67.8565 18.8666C67.8406 18.4226 67.7217 18.0262 67.4997 17.6774C67.2778 17.3127 66.9844 17.0353 66.6197 16.845C66.255 16.6389 65.8507 16.5358 65.4068 16.5358C65.0104 16.5358 64.6378 16.6389 64.2889 16.845C63.9401 17.0511 63.6388 17.3286 63.3851 17.6774C63.1473 18.0104 62.9887 18.4068 62.9095 18.8666H67.8565Z" fill="#001D21"/>
<path d="M49.785 9.35742V23.3185H57.2056V26.0061H46.5742V9.35742H49.785Z" fill="#001D21"/>
</svg>
