<svg width="72" height="72" viewBox="0 0 72 72" fill="none" xmlns="http://www.w3.org/2000/svg">
<rect width="72" height="72" rx="10" fill="#C1EEDE"/>
<g clip-path="url(#clip0_9145_42110)">
<path d="M43.5455 32.2955C43.9848 31.8562 43.9848 31.1438 43.5455 30.7045C43.1062 30.2652 42.3938 30.2652 41.9545 30.7045L33.75 38.909L30.0455 35.2045C29.6062 34.7652 28.8938 34.7652 28.4545 35.2045C28.0152 35.6438 28.0152 36.3562 28.4545 36.7955L32.9545 41.2955C33.3938 41.7348 34.1062 41.7348 34.5455 41.2955L43.5455 32.2955Z" fill="#33B586"/>
<path fill-rule="evenodd" clip-rule="evenodd" d="M36 18.375C26.266 18.375 18.375 26.266 18.375 36C18.375 45.734 26.266 53.625 36 53.625C45.734 53.625 53.625 45.734 53.625 36C53.625 26.266 45.734 18.375 36 18.375ZM20.625 36C20.625 27.5086 27.5086 20.625 36 20.625C44.4914 20.625 51.375 27.5086 51.375 36C51.375 44.4914 44.4914 51.375 36 51.375C27.5086 51.375 20.625 44.4914 20.625 36Z" fill="#33B586"/>
</g>
<defs>
<clipPath id="clip0_9145_42110">
<rect width="36" height="36" fill="white" transform="translate(18 18)"/>
</clipPath>
</defs>
</svg>
