<svg width="72" height="72" viewBox="0 0 72 72" fill="none" xmlns="http://www.w3.org/2000/svg">
<rect width="72" height="72" rx="10" fill="#EBEFFF"/>
<g clip-path="url(#clip0_9145_42104)">
<path d="M37.125 27C37.125 26.3787 36.6213 25.875 36 25.875C35.3787 25.875 34.875 26.3787 34.875 27V36C34.875 36.3879 35.0748 36.7484 35.4038 36.954L41.4038 40.704C41.9306 41.0333 42.6247 40.8731 42.954 40.3462C43.2833 39.8194 43.1231 39.1253 42.5962 38.796L37.125 35.3765V27Z" fill="#375DFB"/>
<path fill-rule="evenodd" clip-rule="evenodd" d="M36 18.375C26.266 18.375 18.375 26.266 18.375 36C18.375 45.734 26.266 53.625 36 53.625C45.734 53.625 53.625 45.734 53.625 36C53.625 26.266 45.734 18.375 36 18.375ZM20.625 36C20.625 27.5086 27.5086 20.625 36 20.625C44.4914 20.625 51.375 27.5086 51.375 36C51.375 44.4914 44.4914 51.375 36 51.375C27.5086 51.375 20.625 44.4914 20.625 36Z" fill="#375DFB"/>
</g>
<defs>
<clipPath id="clip0_9145_42104">
<rect width="36" height="36" fill="white" transform="translate(18 18)"/>
</clipPath>
</defs>
</svg>
