<svg width="72" height="72" viewBox="0 0 72 72" fill="none" xmlns="http://www.w3.org/2000/svg">
<rect width="72" height="72" rx="10" fill="#E6EAEA"/>
<path d="M42.75 20.25H29.25C28.3549 20.25 27.4964 20.6056 26.8635 21.2385C26.2306 21.8714 25.875 22.7299 25.875 23.625V48.375C25.875 49.2701 26.2306 50.1286 26.8635 50.7615C27.4964 51.3944 28.3549 51.75 29.25 51.75H42.75C43.6451 51.75 44.5036 51.3944 45.1365 50.7615C45.7694 50.1286 46.125 49.2701 46.125 48.375V23.625C46.125 22.7299 45.7694 21.8714 45.1365 21.2385C44.5036 20.6056 43.6451 20.25 42.75 20.25ZM43.875 48.375C43.875 48.6734 43.7565 48.9595 43.5455 49.1705C43.3345 49.3815 43.0484 49.5 42.75 49.5H29.25C28.9516 49.5 28.6655 49.3815 28.4545 49.1705C28.2435 48.9595 28.125 48.6734 28.125 48.375V23.625C28.125 23.3266 28.2435 23.0405 28.4545 22.8295C28.6655 22.6185 28.9516 22.5 29.25 22.5H42.75C43.0484 22.5 43.3345 22.6185 43.5455 22.8295C43.7565 23.0405 43.875 23.3266 43.875 23.625V48.375ZM37.6875 26.4375C37.6875 26.7713 37.5885 27.0975 37.4031 27.375C37.2177 27.6525 36.9541 27.8688 36.6458 27.9965C36.3374 28.1243 35.9981 28.1577 35.6708 28.0926C35.3434 28.0275 35.0428 27.8667 34.8068 27.6307C34.5708 27.3947 34.41 27.0941 34.3449 26.7667C34.2798 26.4394 34.3132 26.1001 34.441 25.7917C34.5687 25.4834 34.785 25.2198 35.0625 25.0344C35.34 24.849 35.6662 24.75 36 24.75C36.4476 24.75 36.8768 24.9278 37.1932 25.2443C37.5097 25.5607 37.6875 25.9899 37.6875 26.4375Z" fill="#54686A"/>
</svg>
