<svg width="72" height="72" viewBox="0 0 72 72" fill="none" xmlns="http://www.w3.org/2000/svg">
<rect width="72" height="72" rx="10" fill="#FEEEE9"/>
<path fill-rule="evenodd" clip-rule="evenodd" d="M37.125 42.933C38.4358 42.4696 39.375 41.2195 39.375 39.75C39.375 37.886 37.864 36.375 36 36.375C34.136 36.375 32.625 37.886 32.625 39.75C32.625 41.2195 33.5642 42.4696 34.875 42.933V45C34.875 45.6213 35.3787 46.125 36 46.125C36.6213 46.125 37.125 45.6213 37.125 45V42.933ZM34.875 39.75C34.875 39.1287 35.3787 38.625 36 38.625C36.6213 38.625 37.125 39.1287 37.125 39.75C37.125 40.3713 36.6213 40.875 36 40.875C35.3787 40.875 34.875 40.3713 34.875 39.75Z" fill="#F15024"/>
<path fill-rule="evenodd" clip-rule="evenodd" d="M36 19.875C31.6508 19.875 28.125 23.4008 28.125 27.75V30.4423C27.3166 30.5103 26.6051 30.6524 25.9463 30.9881C24.8879 31.5274 24.0274 32.3879 23.4881 33.4463C23.1486 34.1126 23.007 34.8328 22.94 35.6528C22.875 36.4492 22.875 37.4326 22.875 38.6518V43.8482C22.875 45.0674 22.875 46.0508 22.94 46.8472C23.007 47.6672 23.1486 48.3874 23.4881 49.0537C24.0274 50.1121 24.8879 50.9726 25.9463 51.5119C26.6126 51.8514 27.3328 51.993 28.1528 52.06C28.9492 52.125 29.9326 52.125 31.1518 52.125H40.8482C42.0674 52.125 43.0508 52.125 43.8472 52.06C44.6672 51.993 45.3874 51.8514 46.0537 51.5119C47.1121 50.9726 47.9726 50.1121 48.5119 49.0537C48.8514 48.3874 48.993 47.6672 49.06 46.8472C49.125 46.0508 49.125 45.0674 49.125 43.8482V38.6518C49.125 37.4326 49.125 36.4492 49.06 35.6528C48.993 34.8328 48.8514 34.1126 48.5119 33.4463C47.9726 32.3879 47.1121 31.5274 46.0537 30.9881C45.3874 30.6486 44.6672 30.507 43.8472 30.44C43.0508 30.375 42.0674 30.375 40.8482 30.375H31.1518C30.8819 30.375 30.6224 30.375 30.375 30.3757V27.75C30.375 24.6434 32.8934 22.125 36 22.125C38.4474 22.125 40.5325 23.6886 41.3052 25.8749C41.5123 26.4607 42.155 26.7677 42.7408 26.5607C43.3266 26.3536 43.6337 25.7109 43.4266 25.1251C42.3461 22.068 39.4306 19.875 36 19.875ZM26.9678 32.9929C27.2641 32.8419 27.6552 32.7382 28.336 32.6826C29.03 32.6259 29.9213 32.625 31.2 32.625H40.8C42.0787 32.625 42.97 32.6259 43.664 32.6826C44.3448 32.7382 44.7359 32.8419 45.0322 32.9929C45.6673 33.3164 46.1836 33.8327 46.5071 34.4678C46.6581 34.7641 46.7618 35.1552 46.8174 35.836C46.8741 36.53 46.875 37.4213 46.875 38.7V43.8C46.875 45.0787 46.8741 45.97 46.8174 46.664C46.7618 47.3448 46.6581 47.7359 46.5071 48.0322C46.1836 48.6673 45.6673 49.1836 45.0322 49.5071C44.7359 49.6581 44.3448 49.7618 43.664 49.8174C42.97 49.8741 42.0787 49.875 40.8 49.875H31.2C29.9213 49.875 29.03 49.8741 28.336 49.8174C27.6552 49.7618 27.2641 49.6581 26.9678 49.5071C26.3327 49.1836 25.8164 48.6673 25.4929 48.0322C25.3419 47.7359 25.2382 47.3448 25.1826 46.664C25.1259 45.97 25.125 45.0787 25.125 43.8V38.7C25.125 37.4213 25.1259 36.53 25.1826 35.836C25.2382 35.1552 25.3419 34.7641 25.4929 34.4678C25.8164 33.8327 26.3327 33.3164 26.9678 32.9929Z" fill="#F15024"/>
</svg>
